<svg width="0" height="0" style="position:absolute"><symbol viewBox="0 0 16 16" id="add" xmlns="http://www.w3.org/2000/svg"><path d="M2 0a2 2 0 0 0-2 2v12a2 2 0 0 0 2 2h12a2 2 0 0 0 2-2V2a2 2 0 0 0-2-2H2zm6.5 4.5v3h3a.5.5 0 0 1 0 1h-3v3a.5.5 0 0 1-1 0v-3h-3a.5.5 0 0 1 0-1h3v-3a.5.5 0 0 1 1 0z"/></symbol><symbol viewBox="0 0 330 330" id="arrow" xmlns="http://www.w3.org/2000/svg"><path d="M100.606 100.606 150 51.212V315c0 8.284 6.716 15 15 15 8.284 0 15-6.716 15-15V51.212l49.394 49.394A14.95 14.95 0 0 0 240 105a14.95 14.95 0 0 0 10.606-4.394c5.858-5.857 5.858-15.355 0-21.213l-75-75c-5.857-5.858-15.355-5.858-21.213 0l-75 75c-5.858 5.857-5.858 15.355 0 21.213 5.858 5.857 15.356 5.857 21.213 0z"/></symbol><symbol viewBox="0 0 100 100" id="close" xmlns="http://www.w3.org/2000/svg"><path d="M97.03 84.77 62.61 49.92l34.72-34.85c3.56-3.57 3.56-9.23 0-12.51-3.56-3.28-9.2-3.57-12.46 0L49.86 37.11 15.44 2.56c-3.56-3.28-8.9-3.28-12.46 0-3.56 3.57-3.56 9.23 0 12.51L37.7 49.92 2.69 84.77c-3.56 3.57-3.56 9.23 0 12.51 3.56 3.57 9.2 3.57 12.46 0l34.72-34.85 34.72 34.85.3.3c3.56 3.28 9.2 3.28 12.46-.3 3.26-3.57 3.26-9.23-.3-12.51z"/></symbol><symbol viewBox="0 0 16 16" id="closed" xmlns="http://www.w3.org/2000/svg"><path d="M16 8A8 8 0 1 1 0 8a8 8 0 0 1 16 0zM5.354 4.646a.5.5 0 1 0-.708.708L7.293 8l-2.647 2.646a.5.5 0 0 0 .708.708L8 8.707l2.646 2.647a.5.5 0 0 0 .708-.708L8.707 8l2.647-2.646a.5.5 0 0 0-.708-.708L8 7.293 5.354 4.646z"/></symbol><symbol viewBox="0 0 16 16" id="down" xmlns="http://www.w3.org/2000/svg"><path d="M16 8A8 8 0 1 1 0 8a8 8 0 0 1 16 0zM8.5 4.5a.5.5 0 0 0-1 0v5.793L5.354 8.146a.5.5 0 1 0-.708.708l3 3a.5.5 0 0 0 .708 0l3-3a.5.5 0 0 0-.708-.708L8.5 10.293V4.5z"/></symbol><symbol viewBox="0 0 16 16" id="download" xmlns="http://www.w3.org/2000/svg"><path d="M8 2a5.53 5.53 0 0 0-3.594 1.342c-.766.66-1.321 1.52-1.464 2.383C1.266 6.095 0 7.555 0 9.318 0 11.366 1.708 13 3.781 13h8.906C14.502 13 16 11.57 16 9.773c0-1.636-1.242-2.969-2.834-3.194C12.923 3.999 10.69 2 8 2zm2.354 6.854-2 2a.5.5 0 0 1-.708 0l-2-2a.5.5 0 1 1 .708-.708L7.5 9.293V5.5a.5.5 0 0 1 1 0v3.793l1.146-1.147a.5.5 0 0 1 .708.708z"/></symbol><symbol viewBox="0 0 16 16" id="edit" xmlns="http://www.w3.org/2000/svg"><path d="M12.854.146a.5.5 0 0 0-.707 0L10.5 1.793 14.207 5.5l1.647-1.646a.5.5 0 0 0 0-.708l-3-3zm.646 6.061L9.793 2.5 3.293 9H3.5a.5.5 0 0 1 .5.5v.5h.5a.5.5 0 0 1 .5.5v.5h.5a.5.5 0 0 1 .5.5v.5h.5a.5.5 0 0 1 .5.5v.207l6.5-6.5zm-7.468 7.468A.5.5 0 0 1 6 13.5V13h-.5a.5.5 0 0 1-.5-.5V12h-.5a.5.5 0 0 1-.5-.5V11h-.5a.5.5 0 0 1-.5-.5V10h-.5a.499.499 0 0 1-.175-.032l-.179.178a.5.5 0 0 0-.11.168l-2 5a.5.5 0 0 0 .65.65l5-2a.5.5 0 0 0 .168-.11l.178-.178z"/></symbol><symbol viewBox="0 0 16 16" id="ep" xmlns="http://www.w3.org/2000/svg"><path d="M0 1a1 1 0 0 1 1-1h14a1 1 0 0 1 1 1v14a1 1 0 0 1-1 1H1a1 1 0 0 1-1-1V1zm4 0v6h8V1H4zm8 8H4v6h8V9zM1 1v2h2V1H1zm2 3H1v2h2V4zM1 7v2h2V7H1zm2 3H1v2h2v-2zm-2 3v2h2v-2H1zM15 1h-2v2h2V1zm-2 3v2h2V4h-2zm2 3h-2v2h2V7zm-2 3v2h2v-2h-2zm2 3h-2v2h2v-2z"/></symbol><symbol viewBox="0 0 16 16" id="errors" xmlns="http://www.w3.org/2000/svg"><path d="M8 15A7 7 0 1 1 8 1a7 7 0 0 1 0 14zm0 1A8 8 0 1 0 8 0a8 8 0 0 0 0 16z"/><path d="M7.002 11a1 1 0 1 1 2 0 1 1 0 0 1-2 0zM7.1 4.995a.905.905 0 1 1 1.8 0l-.35 3.507a.552.552 0 0 1-1.1 0L7.1 4.995z"/></symbol><symbol viewBox="0 0 16 16" id="errors-has" xmlns="http://www.w3.org/2000/svg"><path d="M16 8A8 8 0 1 1 0 8a8 8 0 0 1 16 0zM8 4a.905.905 0 0 0-.9.995l.35 3.507a.552.552 0 0 0 1.1 0l.35-3.507A.905.905 0 0 0 8 4zm.002 6a1 1 0 1 0 0 2 1 1 0 0 0 0-2z"/></symbol><symbol viewBox="0 0 16 16" id="health" xmlns="http://www.w3.org/2000/svg"><path fill-rule="evenodd" d="M6 2a.5.5 0 0 1 .47.33L10 12.036l1.53-4.208A.5.5 0 0 1 12 7.5h3.5a.5.5 0 0 1 0 1h-3.15l-1.88 5.17a.5.5 0 0 1-.94 0L6 3.964 4.47 8.171A.5.5 0 0 1 4 8.5H.5a.5.5 0 0 1 0-1h3.15l1.88-5.17A.5.5 0 0 1 6 2Z"/></symbol><symbol viewBox="0 0 16 16" id="info" xmlns="http://www.w3.org/2000/svg"><path d="m9.708 6.075-3.024.379-.108.502.595.108c.387.093.464.232.38.619l-.975 4.577c-.255 1.183.14 1.74 1.067 1.74.72 0 1.554-.332 1.933-.789l.116-.549c-.263.232-.65.325-.905.325-.363 0-.494-.255-.402-.704l1.323-6.208Zm.091-2.755a1.32 1.32 0 1 1-2.64 0 1.32 1.32 0 0 1 2.64 0Z"/></symbol><symbol preserveAspectRatio="xMidYMid" viewBox="0 0 100 14" id="logo" xmlns="http://www.w3.org/2000/svg"><path d="M45.3.16c-.54 0-1.05.28-1.53.85-.47.57-.87 1.33-1.2 2.28-.33.96-.58 2.02-.74 3.18h-.82c-.43 0-.64.3-.64.88 0 .25.05.44.14.55.11.12.3.17.59.17h.56c-.03.47-.04.94-.04 1.4 0 .34.01.66.04.96-.09.03-.16.1-.24.19-.44.58-.79 1-1.06 1.25-.26.25-.48.38-.67.38-.28 0-.41-.21-.41-.63 0-.29.09-.9.27-1.82.21-1.07.32-1.82.32-2.23 0-.68-.31-1.03-.93-1.03-.31 0-.66.12-1.04.36-.37.24-.75.65-1.14 1.21-.39.57-.74 1.3-1.06 2.2.04-.46.09-.85.14-1.16.06-.32.13-.68.23-1.1.14-.59.22-.97.22-1.14 0-.15-.04-.25-.11-.3-.08-.05-.21-.08-.4-.08-.35 0-.63.07-.83.22-.19.14-.33.36-.41.66-.32 1.14-.5 2.33-.52 3.58-.32.35-.69.66-1.09.9-.54.33-1.03.49-1.46.49-.67 0-1.12-.24-1.36-.73 1.13-.31 1.92-.72 2.39-1.23.48-.53.72-1.15.72-1.87 0-.62-.17-1.12-.5-1.46-.33-.37-.78-.55-1.33-.55-.62 0-1.18.18-1.67.55-.49.37-.87.87-1.14 1.5-.17.38-.29.79-.35 1.21-.12.07-.23.1-.33.1-.24 0-.36-.18-.36-.55 0-.1.04-.37.11-.79.09-.53.13-.86.13-.99 0-.68-.31-1.03-.93-1.03-.31 0-.66.12-1.04.36-.37.24-.75.65-1.14 1.21-.39.57-.74 1.3-1.06 2.2.04-.46.09-.85.14-1.16.06-.32.13-.68.23-1.1.14-.59.22-.97.22-1.14 0-.15-.04-.25-.11-.3-.08-.05-.21-.08-.4-.08-.35 0-.63.07-.83.22-.19.14-.33.36-.41.66-.2.71-.34 1.43-.43 2.18-.24.19-.44.29-.61.29-.24 0-.36-.18-.36-.55 0-.1.04-.37.11-.79.09-.53.13-.86.13-.99 0-.68-.31-1.03-.93-1.03-.31 0-.66.12-1.04.36-.37.24-.75.65-1.14 1.21-.39.57-.74 1.3-1.06 2.2.04-.46.09-.85.14-1.16.06-.32.13-.68.23-1.1.14-.59.22-.97.22-1.14 0-.15-.04-.25-.11-.3-.08-.05-.21-.08-.4-.08-.35 0-.63.07-.83.22-.19.14-.33.36-.41.66-.17.58-.29 1.16-.38 1.77-.43.1-.81.17-1.14.19-.08-.81-.34-1.48-.79-2.04-.44-.56-1.02-.83-1.75-.83-.59 0-1.13.18-1.62.54-.49.35-.87.84-1.14 1.46-.28.62-.41 1.33-.41 2.13 0 .59.11 1.14.32 1.64.21.51.52.91.92 1.21.41.31.9.46 1.47.46.68 0 1.28-.26 1.82-.79.53-.54.89-1.24 1.07-2.13.39-.02.76-.07 1.11-.14 0 .14-.01.28-.01.41 0 .93.07 1.6.22 2.02.15.42.41.63.77.63.3 0 .51-.08.64-.25.14-.18.27-.51.37-1.01.14-.64.33-1.25.56-1.83.23-.58.46-1.04.69-1.38.24-.36.43-.54.57-.54.11 0 .16.08.16.25 0 .07-.01.22-.03.43-.03.16-.04.32-.04.47 0 .48.13.87.39 1.15.27.28.65.43 1.16.43.37 0 .73-.09 1.06-.28 0 .88.08 1.52.21 1.93.15.42.41.63.77.63.3 0 .51-.08.64-.25.14-.18.27-.51.37-1.01.14-.64.33-1.25.56-1.83.23-.58.46-1.04.69-1.38.24-.36.43-.54.57-.54.11 0 .16.08.16.25 0 .07-.01.22-.03.43-.03.16-.04.32-.04.47 0 .48.13.87.39 1.15.27.28.65.43 1.16.43.31 0 .61-.06.89-.19.12.63.37 1.15.75 1.57.55.6 1.33.9 2.33.9.73 0 1.42-.2 2.06-.6.27-.17.52-.35.74-.53.03.19.07.36.12.5.15.42.41.63.77.63.3 0 .51-.08.64-.25.14-.18.27-.51.37-1.01.14-.64.33-1.25.56-1.83.24-.58.47-1.04.69-1.38.23-.36.41-.54.53-.54.11 0 .16.08.16.25 0 .25-.06.71-.19 1.36-.13.76-.2 1.27-.2 1.57 0 .59.12 1.04.37 1.35.25.31.62.46 1.1.46.6 0 1.13-.18 1.6-.54.48-.36.92-.81 1.33-1.36.01-.01.02-.03.03-.04.44 1.3 1.3 1.95 2.57 1.95.63 0 1.19-.18 1.67-.54.49-.36.94-.81 1.34-1.36.18-.23.27-.56.27-.98 0-.22-.04-.39-.11-.52-.07-.12-.16-.19-.29-.19-.14 0-.27.07-.39.22-.43.55-.8.96-1.12 1.23-.31.27-.68.41-1.09.41-.51 0-.88-.22-1.12-.66-.23-.44-.34-1.21-.34-2.3 0-.29.01-.7.03-1.23h1.75c1.08 0 1.62-.36 1.62-1.09 0-.2-.03-.34-.1-.41-.07-.07-.18-.11-.33-.11h-1.6c.64-.63 1.12-1.31 1.43-2.05.09.09.19.14.3.14.16 0 .31-.1.44-.3.42-.61.8-1.05 1.14-1.32.35-.28.65-.42.9-.42.32 0 .47.24.47.71 0 .51-.04 1.14-.13 1.89-.14 1.21-.34 2.64-.59 4.29-.14.89-.25 1.6-.31 2.12-.06.51-.09.92-.09 1.24 0 .48.08.81.23.99.15.17.41.25.76.25.37 0 .62-.1.74-.32.13-.21.23-.58.3-1.13.32-2.54.71-4.54 1.17-6.03.48-1.48.96-2.53 1.46-3.11.5-.59.98-.88 1.45-.88.28 0 .48.09.62.28.14.19.22.48.22.88 0 .74-.22 2.38-.66 4.92-.16.95-.3 1.77-.4 2.48-.1.7-.16 1.25-.16 1.68 0 .46.07.78.22.95.15.17.39.25.72.25.37 0 .64-.1.8-.32.17-.22.29-.65.36-1.27.28-2.36.63-4.27 1.07-5.75.45-1.47.92-2.53 1.4-3.16.5-.64.97-.96 1.42-.96.24 0 .42.09.54.28.13.18.2.45.2.82 0 .21-.01.43-.04.65-.03.21-.07.44-.11.68-.05.24-.08.41-.1.51l-.57 2.89c-.23 1.17-.34 2.07-.34 2.7 0 .89.23 1.61.69 2.15.46.53 1.09.79 1.9.79.53 0 1.04-.15 1.53-.46.3-.19.6-.45.91-.78.19.31.42.57.69.78.41.31.9.46 1.47.46.68 0 1.28-.26 1.82-.79.53-.54.89-1.24 1.07-2.13.39-.02.76-.07 1.11-.14 0 .14-.01.28-.01.41 0 .93.07 1.6.21 2.02.15.42.41.63.77.63.3 0 .51-.08.64-.25.14-.18.27-.51.37-1.01.14-.64.33-1.25.56-1.83.24-.58.47-1.04.69-1.38.23-.36.41-.54.53-.54.11 0 .16.08.16.25 0 .25-.06.71-.19 1.36-.13.76-.2 1.27-.2 1.57 0 .59.12 1.04.37 1.35.25.31.62.46 1.1.46.6 0 1.14-.18 1.6-.54.23-.17.45-.37.66-.58.05.14.11.27.18.39.29.48.74.73 1.36.73.82 0 1.7-.64 2.65-1.91.01-.01.02-.03.03-.04.44 1.3 1.3 1.95 2.57 1.95.63 0 1.19-.18 1.67-.54.27-.2.53-.43.78-.7.19.31.42.56.69.78.41.31.9.46 1.47.46.68 0 1.28-.26 1.82-.79.53-.54.89-1.24 1.07-2.13.39-.02.76-.07 1.11-.14 0 .14-.01.28-.01.41 0 .93.07 1.6.22 2.02.15.42.41.63.77.63.31 0 .52-.08.66-.25.13-.17.25-.5.36-1.01.14-.64.33-1.25.56-1.83.23-.58.46-1.04.69-1.38.23-.36.41-.54.54-.54.05 0 .09.02.11.06.04.04.06.11.06.19 0 .06-.01.18-.03.35-.02.23-.03.45-.03.65 0 .36.09.64.27.85.19.21.42.32.69.32.33 0 .64-.13.92-.39s.49-.59.64-.98c.06-.16.09-.31.09-.44 0-.24-.08-.44-.23-.6a.658.658 0 0 0-.53-.25h-.13c.11-.56.16-.94.16-1.14 0-.34-.08-.59-.23-.76-.14-.18-.35-.27-.63-.27-.3 0-.64.12-1.02.36-.37.24-.75.65-1.14 1.21-.39.57-.74 1.3-1.06 2.2.04-.46.09-.85.14-1.16.06-.32.13-.68.23-1.1.14-.59.22-.97.22-1.14 0-.15-.04-.25-.11-.3-.08-.05-.21-.08-.4-.08-.35 0-.63.07-.83.22-.19.14-.33.36-.41.66-.17.58-.29 1.16-.38 1.77-.43.1-.81.17-1.14.19-.08-.81-.34-1.48-.79-2.04-.44-.56-1.02-.83-1.75-.83-.59 0-1.13.18-1.62.54-.49.35-.87.84-1.14 1.46-.28.62-.41 1.33-.41 2.13 0 .2.01.4.04.59-.21.23-.4.42-.57.57-.31.27-.68.41-1.09.41-.51 0-.88-.22-1.12-.66-.23-.44-.34-1.21-.34-2.3 0-.29.01-.7.03-1.23h1.75c1.08 0 1.62-.36 1.62-1.09 0-.2-.03-.34-.1-.41-.07-.07-.18-.11-.33-.11h-1.6c1.24-1.21 1.86-2.63 1.86-4.25 0-.59-.11-1.08-.34-1.46-.23-.39-.54-.58-.94-.58-.54 0-1.05.28-1.53.85-.47.57-.87 1.33-1.2 2.28-.33.96-.58 2.02-.74 3.18h-.82c-.43 0-.64.3-.64.88 0 .25.05.44.14.55.11.12.3.17.59.17h.56c-.03.47-.04.94-.04 1.4 0 .34.01.66.04.96-.09.03-.16.1-.24.19-.43.57-.77.98-1.03 1.24s-.47.39-.64.39a.4.4 0 0 1-.39-.25c-.08-.17-.11-.41-.11-.73 0-.41.11-1.19.34-2.35.18-.96.27-1.56.27-1.83 0-.36-.24-.54-.73-.54-.31 0-.54.06-.69.19-.14.13-.26.36-.34.69-.17.64-.31 1.33-.43 2.08-.09.62-.14 1.15-.15 1.57-.27.33-.49.59-.68.78-.26.25-.48.38-.67.38-.28 0-.41-.21-.41-.63 0-.29.09-.9.27-1.82.21-1.07.32-1.82.32-2.23 0-.68-.31-1.03-.93-1.03-.31 0-.66.12-1.04.36-.37.24-.75.65-1.14 1.21-.39.57-.74 1.3-1.06 2.2.04-.46.09-.85.14-1.16.06-.32.13-.68.23-1.1.14-.59.22-.97.22-1.14 0-.15-.04-.25-.11-.3-.08-.05-.21-.08-.4-.08-.35 0-.63.07-.83.22-.19.14-.33.36-.41.66-.17.58-.29 1.16-.38 1.77-.43.1-.81.17-1.14.19-.08-.81-.34-1.48-.79-2.04-.44-.56-1.02-.83-1.75-.83-.59 0-1.13.18-1.62.54-.49.35-.87.84-1.14 1.46-.28.62-.41 1.33-.41 2.13 0 .2.01.4.04.6-.19.21-.36.37-.52.49-.3.23-.6.35-.92.35-.33 0-.6-.11-.79-.33-.18-.22-.27-.55-.27-.99 0-.38.05-.83.14-1.35l.87-4.51c.12-.66.19-1.22.19-1.68 0-.85-.18-1.51-.54-1.98-.35-.47-.86-.71-1.53-.71-.83 0-1.56.32-2.2.95-.64.63-1.2 1.67-1.67 3.12.09-.51.13-.95.13-1.29 0-.88-.18-1.56-.54-2.05-.35-.48-.84-.73-1.46-.73-.81 0-1.55.34-2.23 1.03-.68.67-1.29 1.86-1.83 3.58.02-.09.05-.26.09-.5.04-.24.08-.55.13-.93.05-.39.07-.73.07-1.01 0-.7-.14-1.24-.43-1.61-.28-.37-.68-.55-1.2-.55-.56 0-1.13.2-1.69.58-.47.32-.91.75-1.31 1.3 0-.08.01-.15.01-.23 0-.59-.11-1.08-.34-1.46-.23-.39-.54-.58-.94-.58zM7.4.57C5.7.57 4.31.7 3.22.95 2.14 1.2 1.34 1.6.8 2.15.28 2.69.01 3.4.01 4.3c0 .42.06.8.19 1.14.12.33.28.58.47.76.11.11.24.16.4.16.23 0 .45-.08.66-.25.22-.18.33-.37.33-.57 0-.08-.02-.16-.06-.24-.19-.33-.29-.67-.29-1.03 0-.39.11-.7.33-.95.23-.25.61-.45 1.14-.58.53-.14 1.27-.22 2.2-.25-.05.25-.09.48-.13.69-.04.2-.07.38-.1.54-.13.71-.27 1.45-.4 2.24-.13.78-.25 1.58-.36 2.38-.06.47-.14 1.03-.24 1.67-.1.64-.18 1.25-.26 1.84-.07.58-.1 1-.1 1.24 0 .27.09.49.26.66.17.17.42.25.73.25.3 0 .55-.08.76-.24.21-.17.32-.4.34-.71.04-.58.11-1.33.23-2.27.11-.95.22-1.77.33-2.49.3-1.95.62-3.9.97-5.83.78.01 1.41.03 1.89.06.49.02 1.16.07 2.02.14.38.03.66-.03.83-.19.18-.16.27-.41.27-.76a.78.78 0 0 0-.23-.55c-.14-.16-.36-.27-.66-.33-.47-.09-1.02-.16-1.65-.2C9.26.59 8.43.57 7.38.57zM45 1.67c.21 0 .32.31.32.93 0 .55-.14 1.15-.43 1.83-.28.66-.7 1.25-1.26 1.79.11-.85.23-1.62.39-2.32.16-.7.33-1.24.5-1.64.18-.4.34-.6.49-.6zm40.3 0c.21 0 .32.31.32.93 0 .55-.14 1.15-.43 1.83-.28.66-.7 1.25-1.26 1.79.11-.85.23-1.62.39-2.32.16-.7.33-1.24.5-1.64.18-.4.34-.6.49-.6zm-5.35 1.4c-.39 0-.72.13-.99.38-.26.24-.39.55-.39.92s.1.66.3.87c.2.2.5.3.9.3.41 0 .74-.12.99-.36.25-.25.37-.59.37-1.01 0-.35-.11-.61-.33-.8-.22-.19-.5-.28-.86-.28zm-48.8 5.05c.17 0 .31.06.4.19.11.12.16.27.16.47 0 .39-.16.73-.49 1.03-.32.3-.77.52-1.33.66v-.03c0-.64.12-1.19.36-1.64.25-.45.55-.68.9-.68zm-19.3.11h.07c-.03.17-.04.34-.04.51 0 .4.08.78.23 1.14.16.36.39.65.69.87-.08.52-.23.91-.46 1.17-.22.27-.48.41-.79.41-.28 0-.52-.15-.73-.46-.2-.31-.3-.75-.3-1.32 0-.74.12-1.3.37-1.71.26-.41.58-.61.96-.61zm55.4 0h.07c-.03.17-.04.34-.04.51 0 .4.08.78.23 1.14.16.36.39.65.69.87-.08.52-.23.91-.46 1.17-.22.27-.48.41-.79.41-.28 0-.52-.15-.73-.46-.2-.31-.3-.75-.3-1.32 0-.74.12-1.3.37-1.71.26-.41.58-.61.96-.61zm22.7 0h.07c-.03.17-.04.34-.04.51 0 .4.08.78.23 1.14.16.36.39.65.69.87-.08.52-.23.91-.46 1.17-.22.27-.48.41-.79.41-.28 0-.52-.15-.73-.46-.2-.31-.3-.75-.3-1.32 0-.74.12-1.3.37-1.71.26-.41.58-.61.96-.61z"/></symbol><symbol preserveAspectRatio="xMidYMid" viewBox="0 0 34 14" id="logo-xs" xmlns="http://www.w3.org/2000/svg"><path d="M15.3.03c-.51 0-1.03.12-1.54.36-.09-.03-.18-.05-.28-.07-.55-.1-1.19-.17-1.93-.21C10.82.07 9.84.04 8.61.04c-1.99 0-3.64.13-4.9.39C2.45.69 1.5 1.11.87 1.68c-.61.56-.92 1.3-.92 2.22 0 .44.07.83.22 1.18.14.34.33.6.55.79.12.11.28.16.47.16.27 0 .53-.09.77-.26.26-.19.39-.38.39-.59 0-.09-.02-.17-.07-.24-.22-.34-.34-.69-.34-1.07 0-.4.13-.73.39-.98.27-.26.72-.46 1.35-.61.63-.14 1.49-.23 2.58-.26-.06.26-.11.5-.15.72-.04.21-.08.39-.12.56-.16.73-.31 1.51-.47 2.32-.16.82-.3 1.65-.42 2.48-.07.49-.16 1.07-.28 1.74-.11.67-.21 1.31-.3 1.91-.08.6-.12 1.03-.12 1.3 0 .28.1.51.3.69.2.18.49.26.86.26.35 0 .65-.08.89-.24.25-.17.38-.42.41-.74.04-.6.14-1.38.27-2.36.14-.98.26-1.85.39-2.59.35-2.03.73-4.06 1.14-6.06.92.01 1.66.03 2.22.07.23.01.51.02.81.04l-.15.21c-.17.23-.29.44-.37.62-.07.18-.1.35-.1.52 0 .19.06.35.17.51.12.14.26.21.42.21.19 0 .36-.1.52-.31.49-.63.94-1.09 1.35-1.37.42-.29.77-.44 1.06-.44.37 0 .55.25.55.74 0 .52-.05 1.18-.15 1.96-.17 1.26-.4 2.74-.69 4.46-.17.93-.29 1.66-.37 2.2-.07.52-.1.96-.1 1.3 0 .5.09.85.27 1.03.18.18.48.26.89.26.44 0 .73-.11.87-.33.16-.22.28-.61.35-1.16.37-2.63.83-4.73 1.37-6.26.56-1.55 1.13-2.63 1.71-3.23.58-.61 1.15-.92 1.7-.92.33 0 .56.1.72.29.17.2.25.5.25.92 0 .76-.26 2.46-.77 5.1-.19.98-.35 1.84-.47 2.58-.12.72-.18 1.31-.18 1.75 0 .48.08.81.25.98.18.18.46.26.84.26.44 0 .75-.11.94-.33.2-.23.34-.67.42-1.32.33-2.45.75-4.43 1.26-5.96.53-1.53 1.07-2.61 1.65-3.28.58-.67 1.14-1 1.67-1 .28 0 .49.1.64.29.16.19.24.47.24.85 0 .22-.02.44-.05.67-.03.22-.08.45-.13.7-.06.25-.09.43-.12.52l-.67 2.99c-.27 1.22-.4 2.16-.4 2.8 0 .93.27 1.67.81 2.22.54.55 1.28.82 2.23.82.63 0 1.23-.16 1.8-.48.57-.32 1.15-.82 1.73-1.51.21-.25.32-.59.32-1.02 0-.23-.04-.41-.13-.54a.38.38 0 0 0-.34-.2c-.17 0-.32.08-.45.23-.48.56-.9.96-1.26 1.2-.35.24-.7.36-1.07.36-.39 0-.7-.11-.92-.34-.21-.23-.32-.57-.32-1.03 0-.39.06-.86.17-1.41l1.03-4.7c.14-.69.22-1.27.22-1.75 0-.89-.21-1.57-.64-2.06-.41-.49-1.01-.74-1.8-.74-.98 0-1.84.33-2.58.98-.75.66-1.4 1.74-1.97 3.24.1-.54.15-.98.15-1.35 0-.92-.21-1.62-.64-2.12-.41-.5-.99-.75-1.71-.75-.95 0-1.83.35-2.62 1.07-.8.7-1.52 1.93-2.15 3.73.02-.1.06-.27.1-.52.04-.25.09-.57.15-.97s.08-.75.08-1.05c0-.73-.17-1.28-.5-1.67-.32-.38-.8-.57-1.41-.57z"/></symbol><symbol viewBox="0 0 100 100" id="menu" xmlns="http://www.w3.org/2000/svg"><path d="M0 22.5C0 19.48 2.45 17 5.5 17h88.99c3.06 0 5.5 2.42 5.5 5.5 0 3.03-2.45 5.5-5.5 5.5H5.5C2.44 28 0 25.58 0 22.5zM0 50c0-3.02 2.45-5.5 5.5-5.5h88.99c3.06 0 5.5 2.42 5.5 5.5 0 3.03-2.45 5.5-5.5 5.5H5.5C2.44 55.5 0 53.08 0 50zm0 27.5C0 74.48 2.45 72 5.5 72h88.99c3.06 0 5.5 2.42 5.5 5.5 0 3.03-2.45 5.5-5.5 5.5H5.5C2.44 83 0 80.58 0 77.5z"/></symbol><symbol viewBox="0 0 16 16" id="message" xmlns="http://www.w3.org/2000/svg"><path d="M0 2a2 2 0 0 1 2-2h12a2 2 0 0 1 2 2v8a2 2 0 0 1-2 2H4.414a1 1 0 0 0-.707.293L.854 15.146A.5.5 0 0 1 0 14.793V2zm3.5 1a.5.5 0 0 0 0 1h9a.5.5 0 0 0 0-1h-9zm0 2.5a.5.5 0 0 0 0 1h9a.5.5 0 0 0 0-1h-9zm0 2.5a.5.5 0 0 0 0 1h5a.5.5 0 0 0 0-1h-5z"/></symbol><symbol viewBox="0 0 16 16" id="news" xmlns="http://www.w3.org/2000/svg"><path d="M0 2.5A1.5 1.5 0 0 1 1.5 1h11A1.5 1.5 0 0 1 14 2.5v10.528c0 .3-.05.654-.238.972h.738a.5.5 0 0 0 .5-.5v-9a.5.5 0 0 1 1 0v9a1.5 1.5 0 0 1-1.5 1.5H1.497A1.497 1.497 0 0 1 0 13.5v-11zM12 14c.37 0 .654-.211.853-.441.092-.106.147-.279.147-.531V2.5a.5.5 0 0 0-.5-.5h-11a.5.5 0 0 0-.5.5v11c0 .278.223.5.497.5H12z"/><path d="M2 3h10v2H2V3zm0 3h4v3H2V6zm0 4h4v1H2v-1zm0 2h4v1H2v-1zm5-6h2v1H7V6zm3 0h2v1h-2V6zM7 8h2v1H7V8zm3 0h2v1h-2V8zm-3 2h2v1H7v-1zm3 0h2v1h-2v-1zm-3 2h2v1H7v-1zm3 0h2v1h-2v-1z"/></symbol><symbol viewBox="0 0 16 16" id="pause" xmlns="http://www.w3.org/2000/svg"><path d="M5.5 3.5A1.5 1.5 0 0 1 7 5v6a1.5 1.5 0 0 1-3 0V5a1.5 1.5 0 0 1 1.5-1.5zm5 0A1.5 1.5 0 0 1 12 5v6a1.5 1.5 0 0 1-3 0V5a1.5 1.5 0 0 1 1.5-1.5z"/></symbol><symbol viewBox="0 0 16 16" id="play" xmlns="http://www.w3.org/2000/svg"><path d="m11.596 8.697-6.363 3.692c-.54.313-1.233-.066-1.233-.697V4.308c0-.63.692-1.01 1.233-.696l6.363 3.692a.802.802 0 0 1 0 1.393z"/></symbol><symbol viewBox="0 0 16 16" id="plus" xmlns="http://www.w3.org/2000/svg"><path d="M16 8A8 8 0 1 1 0 8a8 8 0 0 1 16 0zM8.5 4.5a.5.5 0 0 0-1 0v3h-3a.5.5 0 0 0 0 1h3v3a.5.5 0 0 0 1 0v-3h3a.5.5 0 0 0 0-1h-3v-3z"/></symbol><symbol viewBox="0 0 16 16" id="profile" xmlns="http://www.w3.org/2000/svg"><path d="M11 6a3 3 0 1 1-6 0 3 3 0 0 1 6 0z"/><path fill-rule="evenodd" d="M0 8a8 8 0 1 1 16 0A8 8 0 0 1 0 8zm8-7a7 7 0 0 0-5.468 11.37C3.242 11.226 4.805 10 8 10s4.757 1.225 5.468 2.37A7 7 0 0 0 8 1z"/></symbol><symbol viewBox="0 0 16 16" id="question" xmlns="http://www.w3.org/2000/svg"><path d="M16 8A8 8 0 1 1 0 8a8 8 0 0 1 16 0zM5.496 6.033h.825c.138 0 .248-.113.266-.25.09-.656.54-1.134 1.342-1.134.686 0 1.314.343 1.314 1.168 0 .635-.374.927-.965 1.371-.673.489-1.206 1.06-1.168 1.987l.003.217a.25.25 0 0 0 .25.246h.811a.25.25 0 0 0 .25-.25v-.105c0-.718.273-.927 1.01-1.486.609-.463 1.244-.977 1.244-2.056 0-1.511-1.276-2.241-2.673-2.241-1.267 0-2.655.59-2.75 2.286a.237.237 0 0 0 .241.247zm2.325 6.443c.61 0 1.029-.394 1.029-.927 0-.552-.42-.94-1.029-.94-.584 0-1.009.388-1.009.94 0 .533.425.927 1.01.927z"/></symbol><symbol viewBox="0 0 16 16" id="s-tg" xmlns="http://www.w3.org/2000/svg"><path d="M16 8A8 8 0 1 1 0 8a8 8 0 0 1 16 0zM8.287 5.906c-.778.324-2.334.994-4.666 2.01-.378.15-.577.298-.595.442-.03.243.275.339.69.47l.175.055c.408.133.958.288 1.243.294.26.006.549-.1.868-.32 2.179-1.471 3.304-2.214 3.374-2.23.05-.012.12-.026.166.016.047.041.042.12.037.141-.03.129-1.227 1.241-1.846 1.817-.193.18-.33.307-.358.336a8.154 8.154 0 0 1-.188.186c-.38.366-.664.64.015 1.088.327.216.589.393.85.571.284.194.568.387.936.629.093.06.183.125.27.187.331.236.63.448.997.414.214-.02.435-.22.547-.82.265-1.417.786-4.486.906-5.751a1.426 1.426 0 0 0-.013-.315.337.337 0 0 0-.114-.217.526.526 0 0 0-.31-.093c-.3.005-.763.166-2.984 1.09z"/></symbol><symbol viewBox="0 0 16 16" id="save-to" xmlns="http://www.w3.org/2000/svg"><path fill-rule="evenodd" d="M6.364 2.5a.5.5 0 0 1 .5-.5H13.5A1.5 1.5 0 0 1 15 3.5v10a1.5 1.5 0 0 1-1.5 1.5h-10A1.5 1.5 0 0 1 2 13.5V6.864a.5.5 0 1 1 1 0V13.5a.5.5 0 0 0 .5.5h10a.5.5 0 0 0 .5-.5v-10a.5.5 0 0 0-.5-.5H6.864a.5.5 0 0 1-.5-.5z"/><path fill-rule="evenodd" d="M11 10.5a.5.5 0 0 1-.5.5h-5a.5.5 0 0 1 0-1h3.793L1.146 1.854a.5.5 0 1 1 .708-.708L10 9.293V5.5a.5.5 0 0 1 1 0v5z"/></symbol><symbol viewBox="0 0 16 16" id="settings" xmlns="http://www.w3.org/2000/svg"><path d="M9.405 1.05c-.413-1.4-2.397-1.4-2.81 0l-.1.34a1.464 1.464 0 0 1-2.105.872l-.31-.17c-1.283-.698-2.686.705-1.987 1.987l.169.311c.446.82.023 1.841-.872 2.105l-.34.1c-1.4.413-1.4 2.397 0 2.81l.34.1a1.464 1.464 0 0 1 .872 2.105l-.17.31c-.698 1.283.705 2.686 1.987 1.987l.311-.169a1.464 1.464 0 0 1 2.105.872l.1.34c.413 1.4 2.397 1.4 2.81 0l.1-.34a1.464 1.464 0 0 1 2.105-.872l.31.17c1.283.698 2.686-.705 1.987-1.987l-.169-.311a1.464 1.464 0 0 1 .872-2.105l.34-.1c1.4-.413 1.4-2.397 0-2.81l-.34-.1a1.464 1.464 0 0 1-.872-2.105l.17-.31c.698-1.283-.705-2.686-1.987-1.987l-.311.169a1.464 1.464 0 0 1-2.105-.872l-.1-.34zM8 10.93a2.929 2.929 0 1 1 0-5.86 2.929 2.929 0 0 1 0 5.858z"/></symbol><symbol viewBox="0 0 16 16" id="trash" xmlns="http://www.w3.org/2000/svg"><path d="M2.5 1a1 1 0 0 0-1 1v1a1 1 0 0 0 1 1H3v9a2 2 0 0 0 2 2h6a2 2 0 0 0 2-2V4h.5a1 1 0 0 0 1-1V2a1 1 0 0 0-1-1H10a1 1 0 0 0-1-1H7a1 1 0 0 0-1 1H2.5zm3 4a.5.5 0 0 1 .5.5v7a.5.5 0 0 1-1 0v-7a.5.5 0 0 1 .5-.5zM8 5a.5.5 0 0 1 .5.5v7a.5.5 0 0 1-1 0v-7A.5.5 0 0 1 8 5zm3 .5v7a.5.5 0 0 1-1 0v-7a.5.5 0 0 1 1 0z"/></symbol><symbol viewBox="0 0 16 16" id="users" xmlns="http://www.w3.org/2000/svg"><path d="M7 14s-1 0-1-1 1-4 5-4 5 3 5 4-1 1-1 1H7Zm4-6a3 3 0 1 0 0-6 3 3 0 0 0 0 6Zm-5.784 6A2.238 2.238 0 0 1 5 13c0-1.355.68-2.75 1.936-3.72A6.325 6.325 0 0 0 5 9c-4 0-5 3-5 4s1 1 1 1h4.216ZM4.5 8a2.5 2.5 0 1 0 0-5 2.5 2.5 0 0 0 0 5Z"/></symbol><symbol viewBox="0 0 16 16" id="watched" xmlns="http://www.w3.org/2000/svg"><path d="m10.79 12.912-1.614-1.615a3.5 3.5 0 0 1-4.474-4.474l-2.06-2.06C.938 6.278 0 8 0 8s3 5.5 8 5.5a7.029 7.029 0 0 0 2.79-.588zM5.21 3.088A7.028 7.028 0 0 1 8 2.5c5 0 8 5.5 8 5.5s-.939 1.721-2.641 3.238l-2.062-2.062a3.5 3.5 0 0 0-4.474-4.474L5.21 3.089z"/><path d="M5.525 7.646a2.5 2.5 0 0 0 2.829 2.829l-2.83-2.829zm4.95.708-2.829-2.83a2.5 2.5 0 0 1 2.829 2.829zm3.171 6-12-12 .708-.708 12 12-.708.708z"/></symbol></svg>