<svg version="1.1" viewBox="0 0 32 32" xmlns="http://www.w3.org/2000/svg">
 <defs>
  <linearGradient id="bg-grad" x1="5" x2="30" y1="10" y2="30" gradientUnits="userSpaceOnUse">
   <stop stop-color="#13151d" offset="0"/>
   <stop stop-color="#1f2645" offset="1"/>
  </linearGradient>
 </defs>
 <path  d="m2 0c-1 0-2 1-2 2v28c0 1 0.959 2 2 2h28c1 0 2-1 2-2v-28c0-1-1-2-2-2z" fill="url(#bg-grad)"/>
 <path class="ico" d="m14.6 10.3c-0.42 0-0.848 0.0988-1.27 0.296-0.0741-0.0247-0.148-0.0412-0.23-0.0576-0.453-0.0823-0.979-0.14-1.59-0.173-0.601-0.0329-1.41-0.0576-2.42-0.0576-1.64 0-3 0.107-4.03 0.321-1.04 0.214-1.82 0.56-2.34 1.03-0.502 0.461-0.757 1.07-0.757 1.83 0 0.362 0.0576 0.683 0.181 0.971 0.115 0.28 0.272 0.494 0.453 0.65 0.0988 0.0905 0.23 0.132 0.387 0.132 0.222 0 0.436-0.0741 0.634-0.214 0.214-0.156 0.321-0.313 0.321-0.486 0-0.0741-0.0165-0.14-0.0576-0.198-0.181-0.28-0.28-0.568-0.28-0.881 0-0.329 0.107-0.601 0.321-0.807 0.222-0.214 0.593-0.379 1.11-0.502 0.519-0.115 1.23-0.189 2.12-0.214-0.0494 0.214-0.0905 0.412-0.123 0.593-0.0329 0.173-0.0658 0.321-0.0988 0.461-0.132 0.601-0.255 1.24-0.387 1.91-0.132 0.675-0.247 1.36-0.346 2.04-0.0576 0.403-0.132 0.881-0.23 1.43-0.0905 0.551-0.173 1.08-0.247 1.57-0.0658 0.494-0.0988 0.848-0.0988 1.07 0 0.23 0.0823 0.42 0.247 0.568 0.165 0.148 0.403 0.214 0.708 0.214 0.288 0 0.535-0.0658 0.733-0.198 0.206-0.14 0.313-0.346 0.337-0.609 0.0329-0.494 0.115-1.14 0.222-1.94 0.115-0.807 0.214-1.52 0.321-2.13 0.288-1.67 0.601-3.34 0.938-4.99 0.757 0.0082 1.37 0.0247 1.83 0.0576 0.189 0.0082 0.42 0.0165 0.667 0.0329-0.0412 0.0576-0.0823 0.115-0.123 0.173-0.14 0.189-0.239 0.362-0.305 0.51-0.0576 0.148-0.0823 0.288-0.0823 0.428 0 0.156 0.0494 0.288 0.14 0.42 0.0988 0.115 0.214 0.173 0.346 0.173 0.156 0 0.296-0.0823 0.428-0.255 0.403-0.519 0.774-0.897 1.11-1.13 0.346-0.239 0.634-0.362 0.872-0.362 0.305 0 0.453 0.206 0.453 0.609 0 0.428-0.0412 0.971-0.123 1.61-0.14 1.04-0.329 2.26-0.568 3.67-0.14 0.765-0.239 1.37-0.305 1.81-0.0576 0.428-0.0823 0.79-0.0823 1.07 0 0.412 0.0741 0.7 0.222 0.848 0.148 0.148 0.395 0.214 0.733 0.214 0.362 0 0.601-0.0905 0.716-0.272 0.132-0.181 0.23-0.502 0.288-0.955 0.305-2.16 0.683-3.89 1.13-5.15 0.461-1.28 0.93-2.16 1.41-2.66 0.477-0.502 0.947-0.757 1.4-0.757 0.272 0 0.461 0.0823 0.593 0.239 0.14 0.165 0.206 0.412 0.206 0.757 0 0.626-0.214 2.02-0.634 4.2-0.156 0.807-0.288 1.51-0.387 2.12-0.0988 0.593-0.148 1.08-0.148 1.44 0 0.395 0.0658 0.667 0.206 0.807 0.148 0.148 0.379 0.214 0.691 0.214 0.362 0 0.617-0.0905 0.774-0.272 0.165-0.189 0.28-0.551 0.346-1.09 0.272-2.02 0.617-3.65 1.04-4.91 0.436-1.26 0.881-2.15 1.36-2.7 0.477-0.551 0.938-0.823 1.37-0.823 0.23 0 0.403 0.0823 0.527 0.239 0.132 0.156 0.198 0.387 0.198 0.7 0 0.181-0.0165 0.362-0.0412 0.551-0.0247 0.181-0.0658 0.37-0.107 0.576-0.0494 0.206-0.0741 0.354-0.0988 0.428l-0.551 2.46c-0.222 1-0.329 1.78-0.329 2.3 0 0.765 0.222 1.37 0.667 1.83 0.444 0.453 1.05 0.675 1.84 0.675 0.519 0 1.01-0.132 1.48-0.395 0.469-0.263 0.947-0.675 1.42-1.24 0.173-0.206 0.263-0.486 0.263-0.84 0-0.189-0.0329-0.337-0.107-0.444-0.0658-0.107-0.156-0.165-0.28-0.165-0.14 0-0.263 0.0658-0.37 0.189-0.395 0.461-0.741 0.79-1.04 0.988-0.288 0.198-0.576 0.296-0.881 0.296-0.321 0-0.576-0.0905-0.757-0.28-0.173-0.189-0.263-0.469-0.263-0.848 0-0.321 0.0494-0.708 0.14-1.16l0.848-3.87c0.115-0.568 0.181-1.05 0.181-1.44 0-0.733-0.173-1.29-0.527-1.7-0.337-0.403-0.831-0.609-1.48-0.609-0.807 0-1.51 0.272-2.12 0.807-0.617 0.543-1.15 1.43-1.62 2.67 0.0823-0.444 0.123-0.807 0.123-1.11 0-0.757-0.173-1.33-0.527-1.74-0.337-0.412-0.815-0.617-1.41-0.617-0.782 0-1.51 0.288-2.16 0.881-0.658 0.576-1.25 1.59-1.77 3.07 0.0165-0.0823 0.0494-0.222 0.0823-0.428 0.0329-0.206 0.0741-0.469 0.123-0.798 0.0494-0.329 0.0658-0.617 0.0658-0.864 0-0.601-0.14-1.05-0.412-1.37-0.263-0.313-0.658-0.469-1.16-0.469z" fill="#fff"/>
</svg>
